<svg width="8" height="8" viewBox="0 0 8 8" fill="none" xmlns="http://www.w3.org/2000/svg">
<path id="Star 7" d="M3.69126 1.31883C3.87009 0.768473 4.6487 0.768473 4.82752 1.31883L5.19821 2.4597C5.27818 2.70583 5.50754 2.87247 5.76634 2.87247H6.96592C7.5446 2.87247 7.7852 3.61297 7.31704 3.95311L6.34656 4.65821C6.13719 4.81032 6.04958 5.07995 6.12956 5.32608L6.50025 6.46695C6.67907 7.01731 6.04916 7.47496 5.58099 7.13482L4.61052 6.42973C4.40115 6.27761 4.11764 6.27761 3.90827 6.42973L2.93779 7.13482C2.46963 7.47496 1.83972 7.01731 2.01854 6.46695L2.38923 5.32608C2.4692 5.07995 2.38159 4.81032 2.17222 4.65821L1.20175 3.95311C0.733582 3.61297 0.974186 2.87247 1.55287 2.87247H2.75245C3.01124 2.87247 3.2406 2.70583 3.32057 2.4597L3.69126 1.31883Z" fill="#FFC93F"/>
</svg>
