<svg width="53" height="53" viewBox="0 0 53 53" fill="none" xmlns="http://www.w3.org/2000/svg">
<path d="M41.4062 33.125H8.28125C6.45937 33.125 4.96875 34.6156 4.96875 36.4375C4.96875 38.2594 6.45937 39.75 8.28125 39.75C6.45937 39.75 4.96875 41.2406 4.96875 43.0625C4.96875 44.8844 6.45937 46.375 8.28125 46.375H41.4062C45.05 46.375 48.0312 43.3938 48.0312 39.75C48.0312 36.1062 45.05 33.125 41.4062 33.125Z" stroke="#48DB45" stroke-width="2" stroke-miterlimit="10" stroke-linecap="round" stroke-linejoin="round"/>
<path d="M41.4062 38.0938V39.75H8.28125" stroke="#48DB45" stroke-width="2" stroke-miterlimit="10" stroke-linecap="round" stroke-linejoin="round"/>
<path d="M41.4062 6.625H8.28125C6.45937 6.625 4.96875 8.11562 4.96875 9.9375C4.96875 11.7594 6.45937 13.25 8.28125 13.25C6.45937 13.25 4.96875 14.7406 4.96875 16.5625C4.96875 18.3844 6.45937 19.875 8.28125 19.875H41.4062C45.05 19.875 48.0312 16.8938 48.0312 13.25C48.0312 9.60625 45.05 6.625 41.4062 6.625Z" stroke="#48DB45" stroke-width="2" stroke-miterlimit="10" stroke-linecap="round" stroke-linejoin="round"/>
<path d="M41.4062 11.5938V13.25H8.28125" stroke="#48DB45" stroke-width="2" stroke-miterlimit="10" stroke-linecap="round" stroke-linejoin="round"/>
<path d="M11.5938 19.875H44.7188C46.5406 19.875 48.0312 21.3656 48.0312 23.1875C48.0312 25.0094 46.5406 26.5 44.7188 26.5C46.5406 26.5 48.0312 27.9906 48.0312 29.8125C48.0312 31.6344 46.5406 33.125 44.7188 33.125H11.5938C7.95 33.125 4.96875 30.1438 4.96875 26.5C4.96875 22.8562 7.95 19.875 11.5938 19.875Z" stroke="#48DB45" stroke-width="2" stroke-miterlimit="10" stroke-linecap="round" stroke-linejoin="round"/>
<path d="M11.5938 24.8438V26.5H44.7188" stroke="#48DB45" stroke-width="2" stroke-miterlimit="10" stroke-linecap="round" stroke-linejoin="round"/>
</svg>
