<svg width="83" height="51" viewBox="0 0 83 51" fill="none" xmlns="http://www.w3.org/2000/svg">
<path d="M82.4104 29.646C81.8582 29.2392 80.9941 29 80.0773 29H2.92256C2.00543 29 1.14167 29.239 0.589479 29.646C0.0372918 30.0527 -0.139515 30.5799 0.112428 31.0697L9.75692 49.8225C10.1153 50.5195 11.262 51 12.567 51H70.4331C71.7378 51 72.8848 50.5195 73.2432 49.8225L82.8877 31.0697C83.1394 30.5799 82.9628 30.0527 82.4104 29.646ZM68.2285 47.7528H14.7713L6.79681 32.2472H76.203L68.2285 47.7528Z" fill="#48DB45"/>
<path d="M19.8916 26H67.9102C69.5174 26 70.8205 25.2341 70.8205 24.2895V13.1414C73.7408 11.7936 75.6223 9.70179 75.6223 7.35535C75.6223 3.2996 70.0084 0 63.1085 0H15.0898C13.4827 0 12.1796 0.765917 12.1796 1.71053V12.8586C9.25927 14.2064 7.37781 16.2982 7.37781 18.6446C7.37781 22.7004 12.9916 26 19.8916 26ZM18 9.06588H58.3064C59.9135 9.06588 61.2166 8.29997 61.2166 7.35535C61.2166 6.41074 59.9135 5.64482 58.3064 5.64482H18V3.42106H63.1085C66.7995 3.42106 69.8021 5.18586 69.8021 7.35518C69.8021 9.52449 66.7995 11.2895 63.1085 11.2895H18V9.06588ZM19.8916 14.7105H65V16.9343H24.6937C23.0865 16.9343 21.7834 17.7002 21.7834 18.6448C21.7834 19.5894 23.0865 20.3554 24.6937 20.3554H65V22.5789H19.8916C16.2005 22.5789 13.198 20.8141 13.198 18.6448C13.198 16.4755 16.2008 14.7105 19.8916 14.7105Z" fill="#48DB45"/>
<path d="M14.8722 35.2866L19.8742 45.6958C20.2534 46.485 21.4679 47 22.7886 47C23.0629 47 23.3425 46.9778 23.6196 46.931C25.23 46.6598 26.1641 45.6671 25.7057 44.7137L20.7037 34.3042C20.2453 33.3512 18.5687 32.7972 16.9583 33.0692C15.3479 33.3404 14.4138 34.3332 14.8722 35.2866Z" fill="#48DB45"/>
<path d="M41.4999 47C43.0278 47 44.2666 46.1963 44.2666 45.2051V34.7949C44.2666 33.8037 43.0278 33 41.4999 33C39.9721 33 38.7333 33.8037 38.7333 34.7949V45.2051C38.7333 46.1965 39.9721 47 41.4999 47Z" fill="#48DB45"/>
<path d="M59.3806 46.931C59.658 46.9778 59.9369 47 60.2116 47C61.5322 47 62.7467 46.4851 63.1259 45.6958L68.1278 35.2863C68.5862 34.3329 67.6522 33.3402 66.0414 33.069C64.4314 32.7976 62.7545 33.3508 62.2961 34.304L57.2942 44.7136C56.8361 45.6672 57.7702 46.6598 59.3806 46.931Z" fill="#48DB45"/>
</svg>
