<svg width="40" height="40" viewBox="0 0 40 40" fill="none" xmlns="http://www.w3.org/2000/svg">
<path d="M36.6666 16.6667V21.6667C36.6666 28.3334 33.3333 31.6667 26.6666 31.6667H25.8333C25.3166 31.6667 24.8166 31.9167 24.4999 32.3334L21.9999 35.6667C20.8999 37.1334 19.0999 37.1334 17.9999 35.6667L15.4999 32.3334C15.2333 31.9667 14.6166 31.6667 14.1666 31.6667H13.3333C6.66659 31.6667 3.33325 30 3.33325 21.6667V13.3334C3.33325 6.66671 6.66659 3.33337 13.3333 3.33337H23.3333" stroke="#48DB45" stroke-width="1.5" stroke-miterlimit="10" stroke-linecap="round" stroke-linejoin="round"/>
<path d="M32.4999 11.6667C34.8011 11.6667 36.6666 9.80123 36.6666 7.50004C36.6666 5.19885 34.8011 3.33337 32.4999 3.33337C30.1987 3.33337 28.3333 5.19885 28.3333 7.50004C28.3333 9.80123 30.1987 11.6667 32.4999 11.6667Z" stroke="#48DB45" stroke-width="1.5" stroke-linecap="round" stroke-linejoin="round"/>
<path d="M26.6608 18.3333H26.6758" stroke="#48DB45" stroke-width="2" stroke-linecap="round" stroke-linejoin="round"/>
<path d="M19.9924 18.3333H20.0074" stroke="#48DB45" stroke-width="2" stroke-linecap="round" stroke-linejoin="round"/>
<path d="M13.3242 18.3333H13.3391" stroke="#48DB45" stroke-width="2" stroke-linecap="round" stroke-linejoin="round"/>
</svg>
