<svg width="361" height="299" viewBox="0 0 361 299" fill="none" xmlns="http://www.w3.org/2000/svg">
<line y1="-0.5" x2="213.584" y2="-0.5" transform="matrix(0.775638 -0.631178 0.934487 0.355997 195.336 299)" stroke="#53CEF4"/>
<line y1="-0.5" x2="252.63" y2="-0.5" transform="matrix(0.769252 -0.638945 0.936875 0.349666 166.664 299)" stroke="#53CEF4"/>
<line y1="-0.5" x2="288.293" y2="-0.5" transform="matrix(0.773548 -0.633738 0.935282 0.353905 137.99 299)" stroke="#53CEF4"/>
<line y1="-0.5" x2="326.213" y2="-0.5" transform="matrix(0.771526 -0.636198 0.936038 0.351899 109.318 299)" stroke="#53CEF4"/>
<line y1="-0.5" x2="361.687" y2="-0.5" transform="matrix(0.76632 -0.642459 0.937932 0.346819 83.832 299)" stroke="#53CEF4"/>
<line y1="-0.5" x2="398.475" y2="-0.5" transform="matrix(0.767528 -0.641015 0.937499 0.347987 55.1602 299)" stroke="#53CEF4"/>
<line y1="-0.5" x2="431.681" y2="-0.5" transform="matrix(0.767528 -0.641015 0.937499 0.347987 29.6719 299)" stroke="#53CEF4"/>
<line y1="-0.5" x2="467.337" y2="-0.5" transform="matrix(0.770322 -0.637655 0.936483 0.350713 1 299)" stroke="#53CEF4"/>
<line y1="-0.5" x2="176.79" y2="-0.5" transform="matrix(0.774881 -0.632107 0.934776 0.355237 224.01 299)" stroke="#53CEF4"/>
<line y1="-0.5" x2="136.409" y2="-0.5" transform="matrix(0.770717 -0.637177 0.936337 0.351102 255.867 299)" stroke="#53CEF4"/>
<line y1="-0.5" x2="93.7846" y2="-0.5" transform="matrix(0.781304 -0.62415 0.932266 0.361773 287.727 299)" stroke="#53CEF4"/>
<line y1="-0.5" x2="58.1109" y2="-0.5" transform="matrix(0.767528 -0.641015 0.9375 0.347987 316.398 299)" stroke="#53CEF4"/>
</svg>
