<svg width="364" height="302" viewBox="0 0 364 302" fill="none" xmlns="http://www.w3.org/2000/svg">
<line y1="-0.5" x2="213.584" y2="-0.5" transform="matrix(-0.781483 -0.623927 -0.931131 0.364685 168.432 299.797)" stroke="#53CEF4"/>
<line y1="-0.5" x2="252.63" y2="-0.5" transform="matrix(-0.77517 -0.631753 -0.933577 0.358376 197.104 299.53)" stroke="#53CEF4"/>
<line y1="-0.5" x2="288.293" y2="-0.5" transform="matrix(-0.779417 -0.626506 -0.931945 0.3626 225.775 299.263)" stroke="#53CEF4"/>
<line y1="-0.5" x2="326.213" y2="-0.5" transform="matrix(-0.777418 -0.628985 -0.93272 0.360601 254.445 298.996)" stroke="#53CEF4"/>
<line y1="-0.5" x2="361.687" y2="-0.5" transform="matrix(-0.772271 -0.635294 -0.934662 0.355539 279.932 298.759)" stroke="#53CEF4"/>
<line y1="-0.5" x2="398.475" y2="-0.5" transform="matrix(-0.773465 -0.633839 -0.934218 0.356703 308.604 298.492)" stroke="#53CEF4"/>
<line y1="-0.5" x2="431.681" y2="-0.5" transform="matrix(-0.773465 -0.633839 -0.934218 0.356703 334.088 298.254)" stroke="#53CEF4"/>
<line y1="-0.5" x2="467.337" y2="-0.5" transform="matrix(-0.776227 -0.630453 -0.933176 0.35942 362.76 297.987)" stroke="#53CEF4"/>
<line y1="-0.5" x2="176.79" y2="-0.5" transform="matrix(-0.780735 -0.624862 -0.931427 0.363928 139.76 300.064)" stroke="#53CEF4"/>
<line y1="-0.5" x2="136.409" y2="-0.5" transform="matrix(-0.776618 -0.629972 -0.933027 0.359807 107.904 300.361)" stroke="#53CEF4"/>
<line y1="-0.5" x2="93.7846" y2="-0.5" transform="matrix(-0.787083 -0.616847 -0.928856 0.370441 76.0469 300.658)" stroke="#53CEF4"/>
<line y1="-0.5" x2="58.1109" y2="-0.5" transform="matrix(-0.773465 -0.633839 -0.934218 0.356703 47.375 300.925)" stroke="#53CEF4"/>
</svg>
