<svg width="40" height="34" viewBox="0 0 40 34" fill="none" xmlns="http://www.w3.org/2000/svg">
<path d="M18.2218 16.418C18.2218 16.2118 18.2641 15.9372 18.3084 15.6462C18.4642 14.6304 18.658 13.3664 17.6241 12.311C17.0644 11.7396 15.7151 11.5114 14.6101 11.8008C13.5052 12.0902 13.0639 12.7879 13.6236 13.3593C14.0879 13.8331 13.9489 14.7364 13.8373 15.4625C13.7856 15.8002 13.7364 15.7672 13.7364 16.4177C13.7364 17.3126 14.9304 17.8055 15.1691 18.4803V19.6354L16.2859 21.3679L21.8699 24.833L22.9867 25.988L24.1035 28.298V29.453V30.0305L21.8699 31.1856L19.2562 31.7631H12.9354H6.28635L4.46723 31.1856V18.7583C5.35034 16.2678 8.11747 14.4621 9.6617 13.5491C10.4769 13.067 10.3821 12.3344 9.45043 11.9129C8.51872 11.4914 7.10146 11.5404 6.28635 12.0222C3.41823 13.7177 0 18.0722 0 29.1891C0 31.8832 2.98778 33.4282 8.19785 33.4282H19.2562C23.7764 33.4282 27.454 31.5265 27.454 29.1891C27.454 24.8236 24.632 23.1964 22.1429 21.7611C19.9511 20.4987 18.2218 19.5012 18.2218 16.418Z" fill="#48DB45"/>
<path d="M2.34879 5.98302C2.95456 5.98979 5.80324 6.11515 6.35797 7.85448C6.53622 8.41459 7.47291 8.82552 8.57036 8.82552H15.0992C16.0771 8.82552 16.9421 8.49809 17.2374 8.01598C17.2923 7.92607 17.3627 7.84292 17.4437 7.76493C17.9111 9.1446 19.3021 11.0663 23.3331 12.1085C23.6553 12.1916 23.9975 12.2312 24.3346 12.2312C25.1573 12.2312 25.9494 11.9963 26.342 11.5899C26.8961 11.0173 26.4467 10.3205 25.3392 10.0344C23.7507 9.62347 22.6588 8.90286 22.0948 7.89156C21.8449 7.4436 21.7508 7.02851 21.7171 6.73621C22.5516 6.71236 23.1673 6.74394 23.1823 6.74491C23.8173 6.78294 24.4537 6.67852 24.931 6.45873C25.4084 6.23861 25.6814 5.92376 25.6814 5.59312V1.98146C25.6814 1.34111 24.6774 0.821899 23.439 0.821899H6.14124C2.13892 0.821899 0.205733 2.8799 0.103465 4.79195C0.0866382 5.11036 0.29916 5.41877 0.734778 5.64403C1.16855 5.86768 1.73754 5.99047 2.34889 5.98306L2.34879 5.98302ZM6.14163 3.1406H21.1967V4.431C20.6364 4.45324 20.0163 4.49417 19.3725 4.56507C16.7711 4.85092 14.7974 5.52835 13.6638 6.50641H10.2922C9.20776 4.99498 6.95977 4.22475 4.935 3.88633C5.16683 3.49767 5.54326 3.14059 6.14155 3.14059L6.14163 3.1406Z" fill="#48DB45"/>
<path d="M37.3178 4.4429H38.5798C39.3644 4.4429 40.0001 4.11419 40.0001 3.70845C40.0001 3.30272 39.3644 2.974 38.5798 2.974H37.3178C36.5331 2.974 35.8975 3.30272 35.8975 3.70845C35.8975 4.11419 36.5331 4.4429 37.3178 4.4429Z" fill="#48DB45"/>
<path d="M33.404 1.34244L32.2972 1.65601C31.6092 1.85098 31.3574 2.29732 31.7338 2.65279C31.9918 2.89643 32.4786 3.03436 32.9809 3.03436C33.2115 3.03436 33.4452 3.00535 33.662 2.9438L34.7689 2.63023C35.4569 2.43525 35.7087 1.98891 35.3323 1.63344C34.9546 1.27798 34.0921 1.14778 33.404 1.34244H33.404Z" fill="#48DB45"/>
<path d="M37.3958 1.78297C37.6264 1.78297 37.8607 1.75397 38.0776 1.69241L39.1838 1.37852C39.8712 1.18354 40.1236 0.736881 39.7459 0.381407C39.3689 0.0259417 38.5051 -0.104576 37.8177 0.0907218L36.7115 0.404615C36.024 0.59959 35.7716 1.04625 36.1493 1.40173C36.408 1.64536 36.8941 1.78297 37.3958 1.78297H37.3958Z" fill="#48DB45"/>
<path d="M28.9671 2.68713C28.9671 2.68713 27.0745 3.23144 27.0745 3.70775C27.0745 4.22371 29.3711 4.67937 29.5779 4.67937C30.0272 4.67937 30.4628 4.55594 30.6941 4.33777C30.843 4.19758 30.8804 3.77314 30.8804 3.70773C30.8804 3.62168 30.8686 3.11216 30.6941 2.94749C30.3556 2.62909 29.5835 2.51243 28.9671 2.6871L28.9671 2.68713Z" fill="#48DB45"/>
<path d="M34.768 4.65577L33.6612 4.3422C32.9732 4.14723 32.11 4.27775 31.7336 4.63353C31.3565 4.98932 31.6089 5.43567 32.297 5.63031L33.4038 5.94388C33.6201 6.00512 33.8544 6.03445 34.085 6.03445C34.5873 6.03445 35.0734 5.89651 35.332 5.65288C35.7085 5.29709 35.4561 4.85042 34.768 4.65577L34.768 4.65577Z" fill="#48DB45"/>
<path d="M39.1843 5.90713L38.0781 5.59355C37.3901 5.39858 36.5269 5.5291 36.1499 5.88456C35.7728 6.24035 36.0252 6.6867 36.7126 6.88167L37.8188 7.19525C38.0351 7.25648 38.2694 7.28581 38.5 7.28581C39.0023 7.28581 39.4884 7.14787 39.7471 6.90424C40.1241 6.54845 39.8723 6.1021 39.1843 5.90713H39.1843Z" fill="#48DB45"/>
</svg>
