<svg width="53" height="53" viewBox="0 0 53 53" fill="none" xmlns="http://www.w3.org/2000/svg">
<g clip-path="url(#clip0_206_807)">
<path d="M26.5003 18.2849C21.402 18.2849 17.2548 22.4326 17.2548 27.5299C17.2548 32.6272 21.402 36.7758 26.5003 36.7758C31.5981 36.7758 35.7453 32.6273 35.7453 27.5299C35.7453 22.4325 31.5981 18.2849 26.5003 18.2849ZM29.4781 24.9722C29.8819 24.9722 30.2085 25.3 30.2085 25.7022C30.2085 26.1053 29.8819 26.433 29.4781 26.433C29.0759 26.433 28.7485 26.1053 28.7485 25.7022C28.7485 25.3 29.0759 24.9722 29.4781 24.9722ZM25.9321 23.071C26.2721 23.071 26.5472 23.3464 26.5472 23.6848C26.5472 24.0247 26.2721 24.2995 25.9321 24.2995C25.5928 24.2995 25.3182 24.0249 25.3182 23.6848C25.3182 23.3464 25.5928 23.071 25.9321 23.071ZM33.5602 27.53C33.5602 31.4299 30.3993 34.5908 26.5002 34.5908C22.6145 34.5908 19.4642 31.4519 19.4401 27.5733C26.3346 21.4891 25.9529 33.7734 33.5394 27.015C33.5522 27.1842 33.5602 27.3559 33.5602 27.53Z" fill="#48DB45"/>
<path d="M35.7391 18.2914C33.375 15.9266 30.1026 14.4594 26.5001 14.4594C22.8974 14.4594 19.6248 15.9266 17.2607 18.2914C14.8956 20.6554 13.4279 23.9283 13.4286 27.5299C13.4279 31.133 14.8955 34.4053 17.2607 36.7692C19.6247 39.1341 22.8973 40.6021 26.5001 40.6013C30.1025 40.6021 33.375 39.1341 35.7391 36.7692C36.6701 35.8382 37.4593 34.765 38.0773 33.587H43.449V22.9066H38.7244C38.0611 21.1597 37.0367 19.5878 35.7391 18.2914ZM34.6115 35.6421C32.5304 37.7231 29.6657 39.0074 26.5002 39.0074C23.3343 39.0074 20.4697 37.7231 18.3885 35.6421C16.3086 33.561 15.0232 30.6959 15.0232 27.53C15.0232 24.365 16.3086 21.5007 18.3885 19.4187C20.4697 17.3392 23.3343 16.0534 26.5002 16.0534C29.6657 16.0534 32.5304 17.3392 34.6115 19.4187C36.6913 21.5006 37.9768 24.3649 37.9768 27.53C37.9768 30.6958 36.6913 33.5609 34.6115 35.6421ZM39.2131 24.5021H41.8546V31.9929H38.7856C39.2936 30.5993 39.5711 29.096 39.5711 27.5299C39.5711 26.4886 39.4453 25.474 39.2131 24.5021Z" fill="#48DB45"/>
<path d="M48.4553 0.839513C47.9399 0.322867 47.2145 -0.00082654 46.4265 1.5852e-06H6.57349C5.78553 -0.00082654 5.05999 0.322867 4.54469 0.839513C4.02721 1.35616 3.70393 2.08036 3.70435 2.86914V48.4299C3.70393 49.2186 4.02721 49.9437 4.54469 50.4595C5.05999 50.9761 5.78553 51.3006 6.57349 51.299H9.12349V53H14.0124V51.299H38.9875V53H43.8766V51.299H46.4266C47.2146 51.3006 47.94 50.9761 48.4554 50.4595C48.9729 49.9436 49.2961 49.2186 49.2957 48.4299V2.86914C49.296 2.08025 48.9728 1.35606 48.4553 0.839513ZM46.7453 48.4299C46.7445 48.5231 46.7114 48.5933 46.6517 48.6555C46.5899 48.7159 46.518 48.7486 46.4265 48.7486H6.57349C6.48188 48.7486 6.41004 48.7159 6.34834 48.6555C6.28861 48.5933 6.2559 48.523 6.25466 48.4299V45.2942H46.7453V48.4299ZM46.7453 43.701H6.25466V2.86914C6.2559 2.77764 6.28861 2.70569 6.34834 2.64431C6.41004 2.58386 6.48188 2.55114 6.57349 2.54959H46.4265C46.518 2.55114 46.5899 2.58396 46.6517 2.64431C46.7114 2.70569 46.7445 2.77764 46.7453 2.86914V43.701Z" fill="#48DB45"/>
<path d="M39.1736 6.19189H13.8264V12.5695H39.1736V6.19189Z" fill="#48DB45"/>
</g>
<defs>
<clipPath id="clip0_206_807">
<rect width="53" height="53" fill="white"/>
</clipPath>
</defs>
</svg>
